<?xml version="1.0" encoding="utf-8"?>
<!-- Generator: Adobe Illustrator 22.1.0, SVG Export Plug-In . SVG Version: 6.00 Build 0)  -->
<svg version="1.1" id="Laag_1" xmlns="http://www.w3.org/2000/svg" xmlns:xlink="http://www.w3.org/1999/xlink" x="0px" y="0px"
	 viewBox="0 0 2834.6 2834.6" style="enable-background:new 0 0 2834.6 2834.6;" xml:space="preserve">
<style type="text/css">
	.st0{fill:#4D4D4D;}
	.st1{fill:#43BAC1;}
	.st2{fill:#D30D52;}
	.st3{fill:#95C124;}
	.st4{fill:#EC6508;}
	.st5{fill:#9C73A5;}
</style>
<g>
	<g>
		<path class="st0" d="M1027.7,1734.8c-6.6,1.7-11.4,2.7-14.4,3.1c-3,0.3-6.2,0.5-9.5,0.5c-13.8,0-23.8-3.7-30.1-11
			c-6.3-7.3-9.4-16.6-9.4-27.8c0-7.3,1.4-13.9,4.1-19.8c2.8-5.9,6.9-10.5,12.5-13.8s13.2-5,22.7-5c8.1,0,16.1,0.9,24,2.8v12
			c-6.7-2.3-11.5-3.6-14.4-4.1c-2.9-0.4-5.7-0.6-8.4-0.6c-8.6,0-14.8,2.8-18.6,8.4c-3.8,5.6-5.7,12.3-5.7,20.3
			c0,8.7,2.2,15.5,6.7,20.7c4.5,5.1,10.8,7.7,18.9,7.7c1.8,0,3.8-0.2,6.2-0.7v-24.2h15.3V1734.8z"/>
		<path class="st0" d="M1041,1736.5v-10.5l36.6-53.1h-34.5v-10.2h52.4v10.2l-36.6,53.1h36.6v10.5H1041z"/>
		<path class="st0" d="M1143.1,1736.5v-73.7h25.3c7.4,0,12.5,0.8,15.5,2.3s5.3,3.7,6.8,6.5c1.5,2.8,2.3,6.4,2.3,10.7
			c0,8.2-2.6,14.5-7.8,18.8s-12.1,6.5-20.9,6.5h-6.2v28.9H1143.1z M1158.2,1697.5h2.9c5.6,0,9.8-1.4,12.4-4.1c2.6-2.7,4-5.9,4-9.5
			c0-2.1-0.4-3.9-1.2-5.6c-0.8-1.7-2.1-3-3.9-4c-1.7-1-4.5-1.4-8.4-1.4h-5.8V1697.5z"/>
		<path class="st0" d="M1201.5,1735.9v-12.6c5.8,2.4,10,3.9,12.9,4.3s5.5,0.7,7.8,0.7c4.3,0,7.5-1,9.6-2.9c2.1-1.9,3.2-4.2,3.2-6.9
			c0-2.1-0.6-3.9-1.8-5.6c-1.2-1.6-4.1-3.7-8.7-6.3l-5-2.7c-7.1-4-11.9-7.6-14.4-11c-2.5-3.4-3.8-7.2-3.8-11.7
			c0-5.5,2.1-10.3,6.4-14.2c4.2-4,10.3-5.9,18.3-5.9c5.9,0,12.6,0.8,20.1,2.5v11.8c-7.6-2.8-13.7-4.2-18.1-4.2
			c-3.7,0-6.5,0.8-8.5,2.4c-1.9,1.6-2.9,3.5-2.9,5.8c0,1.7,0.6,3.3,1.8,4.8c1.1,1.5,4,3.5,8.7,6.1l5.3,2.9
			c8.1,4.6,13.3,8.5,15.6,11.8c2.2,3.4,3.3,7.2,3.3,11.4c0,6-2.3,11.2-6.9,15.5s-11.9,6.4-22,6.4
			C1216.4,1738.4,1209.4,1737.5,1201.5,1735.9z"/>
		<path class="st0" d="M1281.4,1736.5v-30.9l-24.7-42.8h17l18,31.1l18.7-31.1h12.1l-25.7,42.7v31H1281.4z"/>
		<path class="st0" d="M1393.2,1733.6c-3.2,1.4-6,2.4-8.4,2.9c-2.4,0.5-5.1,1-8.1,1.3s-6,0.5-9,0.5c-12.9,0-22.5-3.6-28.8-10.9
			c-6.3-7.3-9.5-16.5-9.5-27.8c0-11.3,3.2-20.6,9.5-27.8c6.3-7.2,16.3-10.9,29.8-10.9c8,0,16,0.9,23.9,2.8v12
			c-3.8-1.3-6.9-2.3-9.4-2.9c-2.4-0.6-4.7-1.1-6.9-1.4c-2.2-0.3-4.3-0.4-6.5-0.4c-8.5,0-14.6,2.7-18.4,8.2
			c-3.8,5.4-5.7,12.2-5.7,20.2c0,8.4,2.2,15.2,6.5,20.5c4.3,5.2,10.8,7.8,19.3,7.8c7.1,0,14.4-1.8,21.8-5.4V1733.6z"/>
		<path class="st0" d="M1406.5,1736.5v-73.7h15.3v29.9h30.5v-29.9h15.3v73.7h-15.3v-33.6h-30.5v33.6H1406.5z"/>
		<path class="st0" d="M1518.8,1738.4c-7.7,0-14.3-1.6-20-4.8c-5.7-3.2-10-7.7-12.9-13.7c-3-6-4.4-12.7-4.4-20.2
			c0-7.5,1.5-14.2,4.4-20.2c3-6,7.3-10.5,13-13.7c5.7-3.2,12.4-4.8,20-4.8c7.6,0,14.2,1.6,19.9,4.8c5.7,3.2,10,7.7,13,13.7
			c3,6,4.4,12.7,4.4,20.2c0,7.5-1.5,14.3-4.4,20.2c-3,6-7.3,10.5-12.9,13.7C1533.2,1736.8,1526.5,1738.4,1518.8,1738.4z
			 M1518.8,1728.3c7.1,0,12.4-2.9,15.9-8.7c3.5-5.8,5.2-12.4,5.2-19.9c0-7.5-1.7-14.1-5.2-19.9c-3.5-5.8-8.8-8.6-15.8-8.6
			c-7.1,0-12.4,2.9-15.9,8.6c-3.5,5.8-5.2,12.4-5.2,19.9c0,7.5,1.7,14.1,5.2,19.9C1506.4,1725.4,1511.7,1728.3,1518.8,1728.3z"/>
		<path class="st0" d="M1570,1736.5v-73.7h15.3v63.2h32.8v10.5H1570z"/>
		<path class="st0" d="M1662,1738.4c-7.7,0-14.3-1.6-20-4.8c-5.7-3.2-10-7.7-12.9-13.7c-3-6-4.4-12.7-4.4-20.2
			c0-7.5,1.5-14.2,4.4-20.2c3-6,7.3-10.5,13-13.7c5.7-3.2,12.4-4.8,20-4.8c7.6,0,14.2,1.6,19.9,4.8c5.7,3.2,10,7.7,13,13.7
			c3,6,4.4,12.7,4.4,20.2c0,7.5-1.5,14.3-4.4,20.2c-3,6-7.3,10.5-12.9,13.7C1676.4,1736.8,1669.7,1738.4,1662,1738.4z M1662,1728.3
			c7.1,0,12.4-2.9,15.9-8.7c3.5-5.8,5.2-12.4,5.2-19.9c0-7.5-1.7-14.1-5.2-19.9c-3.5-5.8-8.8-8.6-15.8-8.6c-7.1,0-12.4,2.9-15.9,8.6
			c-3.5,5.8-5.2,12.4-5.2,19.9c0,7.5,1.7,14.1,5.2,19.9C1649.6,1725.4,1654.9,1728.3,1662,1728.3z"/>
		<path class="st0" d="M1772,1734.8c-6.6,1.7-11.4,2.7-14.4,3.1c-3,0.3-6.2,0.5-9.5,0.5c-13.8,0-23.8-3.7-30.1-11
			c-6.3-7.3-9.4-16.6-9.4-27.8c0-7.3,1.4-13.9,4.1-19.8c2.8-5.9,6.9-10.5,12.5-13.8s13.2-5,22.7-5c8.1,0,16.1,0.9,24,2.8v12
			c-6.7-2.3-11.5-3.6-14.4-4.1c-2.9-0.4-5.7-0.6-8.4-0.6c-8.6,0-14.8,2.8-18.6,8.4c-3.8,5.6-5.7,12.3-5.7,20.3
			c0,8.7,2.2,15.5,6.7,20.7c4.5,5.1,10.8,7.7,18.9,7.7c1.8,0,3.8-0.2,6.2-0.7v-24.2h15.3V1734.8z"/>
		<path class="st0" d="M1789.2,1736.5v-73.7h15.3v73.7H1789.2z"/>
		<path class="st0" d="M1822.9,1736.5v-73.7h47.2v10.2h-31.9v20.5h26.3v10.2h-26.3v22.4h34.2v10.5H1822.9z"/>
	</g>
	<g>
		<path class="st1" d="M1008.3,1408.5l-55.5,176.1h-30.2l-37-126.8L881,1442c-0.3-0.9-1-3.5-2.2-7.9l-2.3-8h-0.4l-2.2,8l-2.3,8
			l-4.8,16l-37.7,126.6h-29.7l-54.1-176.1h20.4l37.9,126.6l5.2,17.2c0.4,1.4,1.3,4.2,2.6,8.5l2.5,8.6h0.4l2.5-8.6l2.5-8.5l5-17
			l37.4-126.7H891l37.2,126.8l5,16.9l2.3,8.6l2.5,8.5h0.4l2.6-8.6l2.6-8.6l5.3-17.3l38.7-126.3H1008.3z"/>
		<path class="st1" d="M1042.7,1408.5v20.3h-18.1v-20.3H1042.7z M1042.7,1461.3v123.3h-18.1v-123.3H1042.7z"/>
		<path class="st1" d="M1092.4,1408.5v176.1h-18.1v-176.1H1092.4z"/>
		<path class="st1" d="M1124.2,1461.3h18.1l-0.4,18.6l0.4,0.4c7-13.8,20.4-20.8,40.3-20.8c20.9,0,33.6,6.9,38.1,20.8h0.5
			c7.7-13.8,21.9-20.8,42.4-20.8c29.1,0,43.6,14.8,43.6,44.5v80.6H1289v-82.3c0-10.8-1.9-18.2-5.8-22.1s-11.2-5.8-21.9-5.8
			c-14.3,0-24,2.7-29,8.1c-5.1,5.4-7.6,15.6-7.6,30.8v71.3h-18.1V1504l-0.3-5.7c0-15.9-9.1-23.9-27.2-23.9
			c-24.6,0-36.9,13.4-36.9,40.1v70.1h-18.1V1461.3z"/>
		<path class="st1" d="M1361.1,1495.9h-17.9c0-14.4,3.2-24,9.7-29c6.5-4.9,19.2-7.4,38.1-7.4c20.6,0,34.4,3,41.7,9.1
			c7.2,6.1,10.8,17.6,10.8,34.6v81.4h-18.1l1.4-13.3l-0.4-0.1c-6.9,10.1-20.9,15.2-41.9,15.2c-31.1,0-46.7-12.5-46.7-37.5
			c0-14.9,3.5-25.2,10.4-30.8c7-5.7,19.6-8.5,37.8-8.5c21.7,0,34.7,4.3,39,12.8l0.4-0.1v-15c0-14.1-1.9-23.2-5.8-27.4
			c-3.9-4.2-12.3-6.3-25.4-6.3c-22.2,0-33.3,6.2-33.3,18.7C1361,1492.9,1361.1,1494.1,1361.1,1495.9z M1390.2,1523.6
			c-13.8,0-22.9,1.5-27,4.4c-4.2,2.9-6.3,9.2-6.3,18.8c0,10,2.1,16.6,6.2,19.8c4.1,3.2,12.5,4.8,25.2,4.8c25.5,0,38.2-7.7,38.2-23.2
			c0-9.7-2.5-16.3-7.4-19.6C1414.1,1525.3,1404.4,1523.6,1390.2,1523.6z"/>
		<path class="st1" d="M1543.9,1584.6v-176.1h73.9h6.7c19.9,0,33.4,3.8,40.6,11.5c7.2,7.7,10.8,22,10.8,43
			c0,20.1-3.8,33.8-11.3,41.2c-7.5,7.3-21.7,11-42.4,11l-7.7,0.1h-50.8v69.4H1543.9z M1563.8,1498.5h47.1c19.7,0,32.3-2,37.9-6.1
			c5.5-4,8.3-13.3,8.3-27.9c0-17-1.9-27.8-5.6-32.3c-3.7-4.5-12.6-6.8-26.6-6.8l-7.6-0.1h-53.4V1498.5z"/>
		<path class="st1" d="M1700.7,1461.3h18.1l-1.8,14.2l0.4,0.4c7.1-11.6,18.9-17.4,35.3-17.4c22.7,0,34.1,11.7,34.1,35.1l-0.1,8.5
			h-17.8l0.4-3.1c0.3-3.3,0.4-5.5,0.4-6.6c0-12.6-6.9-19-20.6-19c-20.1,0-30.2,12.4-30.2,37.3v73.9h-18.1V1461.3z"/>
		<path class="st1" d="M1822.2,1408.5v20.3h-18.1v-20.3H1822.2z M1822.2,1461.3v123.3h-18.1v-123.3H1822.2z"/>
		<path class="st1" d="M1853.8,1461.3h17.4l-0.5,16.8l0.5,0.4c5.5-12.6,19.2-19,41-19c17.6,0,29.6,3.1,35.8,9.3
			c6.2,6.2,9.4,18.1,9.4,35.6v80.2h-18.1v-78.7v-4.6c0-10.6-2-17.7-6.1-21.4c-4-3.7-11.8-5.5-23.4-5.5c-25.4,0-38.1,12-38.1,36v74.2
			h-18.1V1461.3z"/>
		<path class="st1" d="M2085.7,1493.6h-18.1c0-8.6-1.7-13.9-5.2-16c-3.5-2.1-12.4-3.1-26.9-3.1c-13.4,0-21.9,1.1-25.5,3.3
			s-5.4,7.5-5.4,15.8c0,12.6,6.1,19.3,18.2,19.9l14.6,0.8l18.4,0.9c22.4,1.1,33.5,12.8,33.5,35.1c0,13.8-3.7,23.4-11.1,28.5
			c-7.4,5.2-20.9,7.7-40.6,7.7c-20.2,0-34.1-2.5-41.7-7.4c-7.6-4.9-11.4-13.9-11.4-27l0.1-6.7h18.7l0.1,5.8c0,8.1,2.1,13.5,6.2,16.2
			c4.1,2.7,12.3,4.1,24.4,4.1c14.9,0,24.7-1.4,29.3-4.3c4.7-2.8,7-8.8,7-17.8c0-13-5.9-19.5-17.7-19.5c-27.4,0-45.5-2.3-54.1-7
			s-13-14.3-13-28.9c0-13.8,3.4-23.1,10.3-27.7c6.8-4.6,20.4-6.9,40.8-6.9c32.7,0,49,9.8,49,29.5V1493.6z"/>
	</g>
	<g>
		<path class="st0" d="M1417.3,923.7l-215.6,113.4v227.1l214.9,113.1l0.7,0.4l215.6-113.4v-227.1L1417.3,923.7z M1415.8,1037.1
			h-66.7l66.7-105.3V1037.1z M1415.8,1040.1v108.1l-102.8-54.1l34.2-54H1415.8z M1277.2,1150.7l34.2-54l102.7,54l-102.7,54
			L1277.2,1150.7z M1308.8,1206.1l-100,52.6l66.7-105.3L1308.8,1206.1z M1275.4,1147.9l-66.6-105.2l99.9,52.6L1275.4,1147.9z
			 M1310.4,1092.7l-100-52.6h133.3L1310.4,1092.7z M1273.6,1150.7l-68.9,108.8v-217.6L1273.6,1150.7z M1310.4,1208.7l33.2,52.5
			h-132.9L1310.4,1208.7z M1313,1207.3l102.8-54.1v108h-68.7L1313,1207.3z M1415.8,1264.1v105.5l-66.8-105.5H1415.8z M1418.8,1264.1
			h66.8l-66.8,105.5V1264.1z M1418.8,1261.1v-108l102.8,54.1l-34.1,53.9H1418.8z M1524.3,1208.6l99.7,52.5h-132.9L1524.3,1208.6z
			 M1525.9,1206.1l33.3-52.6l66.7,105.3L1525.9,1206.1z M1523.2,1204.7l-102.7-54l102.7-54l34.2,54L1523.2,1204.7z M1525.9,1095.3
			l99.9-52.6l-66.6,105.2L1525.9,1095.3z M1524.3,1092.7l-33.3-52.6h133.3L1524.3,1092.7z M1521.6,1094.1l-102.8,54.1v-108.1h68.6
			L1521.6,1094.1z M1418.8,1037.1V931.8l66.7,105.3H1418.8z M1345.6,1037.1h-137.4l206.1-108.4L1345.6,1037.1z M1345.5,1264.1
			l68.7,108.5L1208,1264.1H1345.5z M1489.2,1264.1h137.5l-206.2,108.5L1489.2,1264.1z M1561,1150.7l68.9-108.9v217.7L1561,1150.7z
			 M1489.1,1037.1l-68.7-108.4l206.1,108.4H1489.1z"/>
		<g>
			<path class="st2" d="M1317.6,1038.9c0,12.4-10,22.4-22.4,22.4c-12.4,0-22.4-10-22.4-22.4c0-12.4,10-22.4,22.4-22.4
				C1307.5,1016.5,1317.6,1026.5,1317.6,1038.9z"/>
			<path class="st1" d="M1470.2,989.8c0,8.1-6.6,14.7-14.7,14.7c-8.1,0-14.7-6.6-14.7-14.7c0-8.1,6.6-14.7,14.7-14.7
				C1463.6,975.1,1470.2,981.7,1470.2,989.8z"/>
			<path class="st3" d="M1508.6,1193.2c0,8.1-6.6,14.7-14.7,14.7c-8.1,0-14.7-6.6-14.7-14.7c0-8.1,6.6-14.7,14.7-14.7
				C1502,1178.5,1508.6,1185.1,1508.6,1193.2z"/>
			<path class="st4" d="M1548.9,1265.8c0,6.2-5,11.2-11.2,11.2c-6.2,0-11.2-5-11.2-11.2c0-6.2,5-11.2,11.2-11.2
				C1543.8,1254.6,1548.9,1259.6,1548.9,1265.8z"/>
			<path class="st4" d="M1605.9,1113.7c0,7.3-5.9,13.1-13.1,13.1c-7.3,0-13.1-5.9-13.1-13.1c0-7.3,5.9-13.1,13.1-13.1
				C1600,1100.6,1605.9,1106.4,1605.9,1113.7z"/>
			<path class="st5" d="M1472.1,1322.9c0,9.2-7.4,16.6-16.6,16.6c-9.2,0-16.6-7.4-16.6-16.6c0-9.2,7.4-16.6,16.6-16.6
				C1464.7,1306.3,1472.1,1313.7,1472.1,1322.9z"/>
			<path class="st1" d="M1422.8,1244.5c0,5.5-4.5,10-10,10c-5.5,0-10-4.5-10-10c0-5.5,4.5-10,10-10
				C1418.3,1234.5,1422.8,1239,1422.8,1244.5z"/>
			<path class="st2" d="M1341.5,1240c0,5.1-4.2,9.3-9.3,9.3c-5.1,0-9.3-4.2-9.3-9.3c0-5.1,4.2-9.3,9.3-9.3
				C1337.4,1230.7,1341.5,1234.8,1341.5,1240z"/>
			<path class="st3" d="M1277,1230.7c0,4.5-3.6,8.1-8.1,8.1c-4.5,0-8.1-3.6-8.1-8.1c0-4.5,3.6-8.1,8.1-8.1
				C1273.4,1222.6,1277,1226.2,1277,1230.7z"/>
			<path class="st5" d="M1384,1173.8c0,4.3-3.5,7.7-7.7,7.7c-4.3,0-7.7-3.5-7.7-7.7c0-4.3,3.5-7.7,7.7-7.7
				C1380.5,1166.1,1384,1169.5,1384,1173.8z"/>
			<path class="st1" d="M1279.3,1152.3c0,3.6-2.9,6.6-6.6,6.6c-3.6,0-6.6-2.9-6.6-6.6c0-3.6,2.9-6.6,6.6-6.6
				C1276.4,1145.8,1279.3,1148.7,1279.3,1152.3z"/>
			<path class="st2" d="M1519.1,1100.6c0,2.6-2.1,4.6-4.6,4.6c-2.6,0-4.6-2.1-4.6-4.6c0-2.6,2.1-4.6,4.6-4.6
				C1517.1,1095.9,1519.1,1098,1519.1,1100.6z"/>
			<path class="st3" d="M1356.8,1118.9c0,1.8-1.4,3.2-3.2,3.2c-1.8,0-3.2-1.4-3.2-3.2s1.4-3.2,3.2-3.2
				C1355.4,1115.7,1356.8,1117.1,1356.8,1118.9z"/>
			
				<ellipse transform="matrix(0.2308 -0.973 0.973 0.2308 54.1488 2101.4731)" class="st4" cx="1356.2" cy="1016.5" rx="2.6" ry="2.6"/>
		</g>
	</g>
</g>
</svg>
